<svg width="36" height="36" viewBox="0 0 36 36" fill="none" xmlns="http://www.w3.org/2000/svg">
<mask id="mask0_2_6570" style="mask-type:alpha" maskUnits="userSpaceOnUse" x="6" y="6" width="24" height="24">
<rect x="6" y="6" width="24" height="24" fill="#D9D9D9"/>
</mask>
<g mask="url(#mask0_2_6570)">
<path d="M12.1155 27.5C11.389 27.5 10.7714 27.2457 10.2627 26.7372C9.75425 26.2286 9.5 25.611 9.5 24.8845V11.1155C9.5 10.389 9.75425 9.77142 10.2627 9.26275C10.7714 8.75425 11.389 8.5 12.1155 8.5H21C21.4972 8.5 21.9228 8.677 22.2768 9.031C22.6308 9.385 22.8077 9.81058 22.8077 10.3077V22C22.8077 22.4972 22.6308 22.9228 22.2768 23.2768C21.9228 23.6308 21.4972 23.8077 21 23.8077H12.1155C11.8065 23.8077 11.5433 23.9126 11.326 24.1223C11.1087 24.3321 11 24.5921 11 24.9023C11 25.2122 11.1087 25.4727 11.326 25.6838C11.5433 25.8946 11.8065 26 12.1155 26H24.6923C24.7821 26 24.8558 25.9712 24.9135 25.9135C24.9712 25.8558 25 25.7821 25 25.6923V11.25C25 11.0375 25.0719 10.8594 25.2158 10.7158C25.3596 10.5719 25.5378 10.5 25.7502 10.5C25.9629 10.5 26.141 10.5719 26.2845 10.7158C26.4282 10.8594 26.5 11.0375 26.5 11.25V25.6923C26.5 26.1894 26.323 26.615 25.969 26.969C25.615 27.323 25.1894 27.5 24.6923 27.5H12.1155ZM14.6923 22.3077H21C21.0898 22.3077 21.1636 22.2789 21.2212 22.2212C21.2789 22.1636 21.3077 22.0898 21.3077 22V10.3077C21.3077 10.2179 21.2789 10.1442 21.2212 10.0865C21.1636 10.0288 21.0898 10 21 10H14.6923V22.3077ZM13.1923 22.3077V10H12.1155C11.7993 10 11.5344 10.1087 11.3208 10.326C11.1069 10.5433 11 10.8065 11 11.1155V22.598C11.173 22.516 11.3498 22.4471 11.5305 22.3913C11.7112 22.3356 11.9062 22.3077 12.1155 22.3077H13.1923Z" fill="#1C1B1F"/>
</g>
</svg>
