<svg width="36" height="36" viewBox="0 0 36 36" fill="none" xmlns="http://www.w3.org/2000/svg">
<mask id="mask0_2_6575" style="mask-type:alpha" maskUnits="userSpaceOnUse" x="6" y="6" width="24" height="24">
<rect x="6" y="6" width="24" height="24" fill="#D9D9D9"/>
</mask>
<g mask="url(#mask0_2_6575)">
<path d="M24.6923 24.5H14.3078C13.8026 24.5 13.375 24.325 13.025 23.975C12.675 23.625 12.5 23.1974 12.5 22.6923V9.30775C12.5 8.80258 12.675 8.375 13.025 8.025C13.375 7.675 13.8026 7.5 14.3078 7.5H20.502C20.743 7.5 20.9748 7.54683 21.1973 7.6405C21.4196 7.734 21.6128 7.86283 21.777 8.027L25.973 12.223C26.1372 12.3872 26.266 12.5804 26.3595 12.8027C26.4532 13.0252 26.5 13.257 26.5 13.498V22.6923C26.5 23.1974 26.325 23.625 25.975 23.975C25.625 24.325 25.1974 24.5 24.6923 24.5ZM25 13.5H21.7115C21.3718 13.5 21.085 13.383 20.851 13.149C20.617 12.915 20.5 12.6282 20.5 12.2885V9H14.3078C14.2308 9 14.1603 9.03208 14.0963 9.09625C14.0321 9.16025 14 9.23075 14 9.30775V22.6923C14 22.7692 14.0321 22.8398 14.0963 22.9038C14.1603 22.9679 14.2308 23 14.3078 23H24.6923C24.7693 23 24.8398 22.9679 24.9038 22.9038C24.9679 22.8398 25 22.7692 25 22.6923V13.5ZM10.3077 28.5C9.80258 28.5 9.375 28.325 9.025 27.975C8.675 27.625 8.5 27.1974 8.5 26.6923V14.25C8.5 14.0372 8.57183 13.859 8.7155 13.7155C8.859 13.5718 9.03717 13.5 9.25 13.5C9.46283 13.5 9.641 13.5718 9.7845 13.7155C9.92817 13.859 10 14.0372 10 14.25V26.6923C10 26.7693 10.0321 26.8398 10.0963 26.9038C10.1603 26.9679 10.2307 27 10.3077 27H19.75C19.9628 27 20.141 27.0718 20.2845 27.2155C20.4282 27.359 20.5 27.5372 20.5 27.75C20.5 27.9628 20.4282 28.141 20.2845 28.2845C20.141 28.4282 19.9628 28.5 19.75 28.5H10.3077Z" fill="#1C1B1F"/>
</g>
</svg>
