<svg width="36" height="36" viewBox="0 0 36 36" fill="none" xmlns="http://www.w3.org/2000/svg">
<mask id="mask0_2_6580" style="mask-type:alpha" maskUnits="userSpaceOnUse" x="6" y="6" width="24" height="24">
<rect x="6" y="6" width="24" height="24" fill="#D9D9D9"/>
</mask>
<g mask="url(#mask0_2_6580)">
<path d="M19.75 20.7692C19.9948 20.7692 20.2086 20.6779 20.3913 20.4952C20.5739 20.3126 20.6652 20.0988 20.6652 19.8538C20.6652 19.6089 20.5739 19.3952 20.3913 19.2125C20.2086 19.0298 19.9948 18.9385 19.75 18.9385C19.5052 18.9385 19.2914 19.0298 19.1087 19.2125C18.9259 19.3952 18.8345 19.6089 18.8345 19.8538C18.8345 20.0988 18.9259 20.3126 19.1087 20.4952C19.2914 20.6779 19.5052 20.7692 19.75 20.7692ZM19.75 17.7615C19.9013 17.7615 20.0385 17.7077 20.1615 17.6C20.2845 17.4923 20.3595 17.3558 20.3865 17.1905C20.4198 16.9583 20.4938 16.7558 20.6085 16.5828C20.7233 16.4096 20.9384 16.1718 21.2538 15.8693C21.7153 15.4269 22.0293 15.0532 22.196 14.748C22.3627 14.443 22.446 14.0886 22.446 13.6848C22.446 12.9731 22.1947 12.3862 21.6923 11.924C21.1898 11.4618 20.5423 11.2307 19.75 11.2307C19.2385 11.2307 18.7706 11.3493 18.3463 11.5865C17.9218 11.8237 17.5826 12.1628 17.3287 12.6038C17.2481 12.7384 17.2397 12.8798 17.3038 13.028C17.3679 13.176 17.4776 13.2821 17.6328 13.3462C17.7776 13.4102 17.9231 13.4169 18.0693 13.3663C18.2154 13.3158 18.334 13.2232 18.425 13.0885C18.5878 12.8462 18.7788 12.6644 18.998 12.5432C19.2173 12.4221 19.468 12.3615 19.75 12.3615C20.1885 12.3615 20.5487 12.4884 20.8307 12.7422C21.1127 12.9961 21.2538 13.3307 21.2538 13.7462C21.2538 13.9987 21.1823 14.2356 21.0395 14.4568C20.8965 14.6779 20.6487 14.95 20.2962 15.273C19.8641 15.6448 19.5782 15.9513 19.4385 16.1923C19.2987 16.4333 19.2121 16.7577 19.1788 17.1655C19.1621 17.3205 19.2102 17.4586 19.323 17.5798C19.4358 17.7009 19.5782 17.7615 19.75 17.7615ZM14.0578 23.5C13.5526 23.5 13.125 23.325 12.775 22.975C12.425 22.625 12.25 22.1974 12.25 21.6923V10.3077C12.25 9.80258 12.425 9.375 12.775 9.025C13.125 8.675 13.5526 8.5 14.0578 8.5H25.4423C25.9474 8.5 26.375 8.675 26.725 9.025C27.075 9.375 27.25 9.80258 27.25 10.3077V21.6923C27.25 22.1974 27.075 22.625 26.725 22.975C26.375 23.325 25.9474 23.5 25.4423 23.5H14.0578ZM14.0578 22H25.4423C25.5193 22 25.5898 21.9679 25.6538 21.9038C25.7179 21.8398 25.75 21.7692 25.75 21.6923V10.3077C25.75 10.2307 25.7179 10.1602 25.6538 10.0962C25.5898 10.0321 25.5193 10 25.4423 10H14.0578C13.9808 10 13.9103 10.0321 13.8463 10.0962C13.7821 10.1602 13.75 10.2307 13.75 10.3077V21.6923C13.75 21.7692 13.7821 21.8398 13.8463 21.9038C13.9103 21.9679 13.9808 22 14.0578 22ZM10.5577 27C10.0526 27 9.625 26.825 9.275 26.475C8.925 26.125 8.75 25.6974 8.75 25.1923V13.0578C8.75 12.8449 8.82183 12.6667 8.9655 12.523C9.109 12.3795 9.28717 12.3077 9.5 12.3077C9.71283 12.3077 9.89108 12.3795 10.0347 12.523C10.1782 12.6667 10.25 12.8449 10.25 13.0578V25.1923C10.25 25.2693 10.2821 25.3398 10.3463 25.4038C10.4103 25.4679 10.4807 25.5 10.5577 25.5H22.6923C22.9051 25.5 23.0833 25.5718 23.227 25.7153C23.3705 25.8589 23.4423 26.0372 23.4423 26.25C23.4423 26.4628 23.3705 26.641 23.227 26.7845C23.0833 26.9282 22.9051 27 22.6923 27H10.5577Z" fill="#3D404B"/>
</g>
</svg>
