<svg width="62" height="64" viewBox="0 0 62 64" fill="none" xmlns="http://www.w3.org/2000/svg">
<rect x="2.5" y="2.5" width="57" height="27" rx="13.5" fill="white"/>
<rect x="2.5" y="2.5" width="57" height="27" rx="13.5" stroke="#EAF0F2"/>
<path d="M16 7.66675L18.1136 8.11169L20.1666 8.7832L21.7747 10.2254L23.2168 11.8334L23.8884 13.8864L24.3333 16.0001L23.8884 18.1138L23.2168 20.1667L21.7747 21.7748L20.1666 23.217L18.1136 23.8885L16 24.3334L13.8863 23.8885L11.8333 23.217L10.2253 21.7748L8.78308 20.1667L8.11157 18.1138L7.66663 16.0001L8.11157 13.8864L8.78308 11.8334L10.2253 10.2254L11.8333 8.7832L13.8863 8.11169L16 7.66675Z" fill="url(#paint0_radial_2_7059)"/>
<path d="M16 9.33325L17.691 9.6892L19.3334 10.2264L20.6198 11.3802L21.7735 12.6666L22.3108 14.309L22.6667 15.9999L22.3108 17.6909L21.7735 19.3333L20.6198 20.6197L19.3334 21.7734L17.691 22.3106L16 22.6666L14.3091 22.3106L12.6667 21.7734L11.3803 20.6197L10.2265 19.3333L9.68933 17.6909L9.33337 15.9999L9.68933 14.309L10.2265 12.6666L11.3803 11.3802L12.6667 10.2264L14.3091 9.6892L16 9.33325Z" fill="url(#paint1_radial_2_7059)"/>
<path d="M11.97 18.25V17.2367L14.1167 14.8233V14.7433H12.0367V13.85H15.29V14.95L13.2167 17.2833V17.3567H15.3767V18.25H11.97ZM18.0315 18.3433C17.7515 18.3433 17.5026 18.3144 17.2848 18.2567C17.067 18.2033 16.8781 18.1233 16.7181 18.0167C16.5581 17.91 16.4248 17.7811 16.3181 17.63C16.2159 17.4789 16.1381 17.31 16.0848 17.1233C16.0359 16.9322 16.0115 16.7256 16.0115 16.5033V13.85H17.0915V16.47C17.0915 16.6833 17.1248 16.8589 17.1915 16.9967C17.2581 17.1344 17.3603 17.2367 17.4981 17.3033C17.6359 17.3656 17.8115 17.3967 18.0248 17.3967C18.2381 17.3967 18.4137 17.3656 18.5515 17.3033C18.6892 17.2367 18.7915 17.1344 18.8581 16.9967C18.9248 16.8589 18.9581 16.6833 18.9581 16.47V13.85H20.0315V16.5033C20.0315 17.0856 19.8648 17.5389 19.5315 17.8633C19.2026 18.1833 18.7026 18.3433 18.0315 18.3433Z" fill="#834700"/>
<path d="M26.5127 11.0244H30.1748V21H28.0654V12.9067H26.5127V11.0244ZM35.8438 18.9858H38.8906V21H31.896V20.5312C33.3267 18.8809 34.3496 17.6699 34.9648 16.8984C35.5801 16.127 35.9951 15.5386 36.21 15.1333C36.4297 14.728 36.5396 14.3423 36.5396 13.9761C36.5396 13.6294 36.4321 13.3511 36.2173 13.1411C36.0073 12.9263 35.7339 12.8188 35.397 12.8188C35.0454 12.8188 34.7622 12.9287 34.5474 13.1484C34.3374 13.3633 34.2324 13.6489 34.2324 14.0054V14.1958H32.0864V13.9761C32.0864 13.0483 32.3843 12.2915 32.98 11.7056C33.5806 11.1147 34.374 10.8193 35.3604 10.8193C36.3418 10.8193 37.1426 11.1123 37.7627 11.6982C38.3877 12.2842 38.7002 13.0361 38.7002 13.9541C38.7002 14.5938 38.5049 15.2676 38.1143 15.9756C37.7236 16.6787 36.9668 17.6821 35.8438 18.9858ZM47.3281 19.7915C46.6006 20.7192 45.6167 21.1831 44.3765 21.1831C43.1362 21.1831 42.1523 20.7192 41.4248 19.7915C40.6973 18.8589 40.3335 17.5967 40.3335 16.0049C40.3335 14.4082 40.6948 13.1484 41.4175 12.2256C42.1401 11.2979 43.1265 10.834 44.3765 10.834C45.6265 10.834 46.6128 11.2979 47.3354 12.2256C48.0581 13.1484 48.4194 14.4082 48.4194 16.0049C48.4194 17.5967 48.0557 18.8589 47.3281 19.7915ZM42.9775 18.3633C43.2998 18.9102 43.7661 19.1836 44.3765 19.1836C44.9868 19.1836 45.4531 18.9126 45.7754 18.3706C46.0977 17.8286 46.2588 17.0449 46.2588 16.0195C46.2588 14.9941 46.0952 14.208 45.7681 13.6611C45.4409 13.1094 44.9771 12.8335 44.3765 12.8335C43.7661 12.8335 43.2998 13.1069 42.9775 13.6538C42.6553 14.1958 42.4941 14.9795 42.4941 16.0049C42.4941 17.0303 42.6553 17.8164 42.9775 18.3633Z" fill="#5B6170"/>
<rect x="9.5" y="34.5" width="50" height="27" rx="13.5" fill="white"/>
<rect x="9.5" y="34.5" width="50" height="27" rx="13.5" stroke="#EAF0F2"/>
<path d="M22.8982 55.4098C19.7975 55.9338 17.7728 54.0268 17.1481 53.0078L17.7304 51.1699L18.4036 49.9871L18.895 47.6943L20.3143 45.8929L21.77 45.8201L24.9363 45.8929L27.9569 50.0963L28.976 52.6075C27.2 55.417 24.1841 55.6463 22.8982 55.4098Z" fill="url(#paint2_linear_2_7059)"/>
<path fill-rule="evenodd" clip-rule="evenodd" d="M23.7734 50.7745C23.687 50.8318 23.5872 50.8657 23.4838 50.8729C23.3804 50.8802 23.2769 50.8605 23.1833 50.8159C23.0582 50.7423 22.9579 50.633 22.8952 50.5021C22.8325 50.3712 22.8103 50.2245 22.8314 50.0809C22.7778 49.3688 22.4754 48.6982 21.9773 48.1865C21.8134 48.91 21.5225 49.5987 21.1181 50.2207L20.6368 50.9557C20.1772 51.657 19.9607 52.4899 20.0208 53.3263C20.0662 53.8888 20.3212 54.4138 20.7353 54.7972C21.1495 55.1806 21.6925 55.3946 22.2568 55.3966H23.5612C24.2096 55.3966 24.8315 55.1394 25.2905 54.6814C25.7495 54.2234 26.008 53.602 26.0094 52.9536C26.0084 51.7121 25.5788 50.509 24.7931 49.5478C24.5716 50.0422 24.2189 50.4664 23.7734 50.7745Z" fill="url(#paint3_linear_2_7059)"/>
<path fill-rule="evenodd" clip-rule="evenodd" d="M26.0609 41.4207L25.7917 41.1827C25.7917 41.1827 25.7917 41.2862 25.7917 41.457C25.7282 42.112 25.5214 42.7451 25.186 43.3113C24.8506 43.8775 24.3947 44.363 23.8507 44.7334C23.8507 44.7334 23.8507 44.5522 23.8145 44.2675C23.7242 43.1396 23.3542 42.052 22.7378 41.1031C22.1215 40.1541 21.2783 39.3738 20.2845 38.8328C20.2845 38.8328 20.2483 39.428 20.2068 40.075C20.1458 41.1081 19.8157 42.1073 19.2493 42.9735L17.7327 45.2768C16.7011 46.8527 16.2172 48.7245 16.3559 50.6029C16.425 51.521 16.7376 52.4041 17.2617 53.1611C17.7858 53.918 18.5022 54.5215 19.3373 54.9093C19.0464 54.458 18.8688 53.943 18.8197 53.4083C18.7434 52.3128 19.0269 51.2223 19.6271 50.3027L20.1085 49.5729C20.61 48.8313 20.9081 47.971 20.9729 47.0781C20.9804 46.9789 21.0121 46.8832 21.0654 46.7992C21.1187 46.7153 21.1918 46.6457 21.2783 46.5967C21.3653 46.5482 21.4633 46.5228 21.5629 46.5228C21.6626 46.5228 21.7606 46.5482 21.8476 46.5967C22.77 47.0991 23.4715 47.928 23.8145 48.9207C23.868 48.7759 23.9011 48.6243 23.9128 48.4704C23.9044 48.3366 23.937 48.2034 24.0064 48.0887C24.0758 47.974 24.1786 47.8832 24.301 47.8286C24.4341 47.7859 24.5772 47.7853 24.7106 47.827C24.844 47.8687 24.9613 47.9506 25.0464 48.0615C25.7242 48.6826 26.2646 49.4386 26.6327 50.281C27.0009 51.1234 27.1887 52.0335 27.184 52.9528C27.1847 53.5772 27.0223 54.1909 26.713 54.7333C27.633 54.2531 28.4042 53.5306 28.9434 52.6439C29.4825 51.7572 29.7691 50.74 29.772 49.7023C29.7703 48.1386 29.4389 46.5928 28.7994 45.1658C28.16 43.7388 27.2268 42.4627 26.0609 41.4207Z" fill="#FF7A1A"/>
<path d="M37.4385 50.9858H40.4854V53H33.4907V52.5312C34.9214 50.8809 35.9443 49.6699 36.5596 48.8984C37.1748 48.127 37.5898 47.5386 37.8047 47.1333C38.0244 46.728 38.1343 46.3423 38.1343 45.9761C38.1343 45.6294 38.0269 45.3511 37.812 45.1411C37.6021 44.9263 37.3286 44.8188 36.9917 44.8188C36.6401 44.8188 36.3569 44.9287 36.1421 45.1484C35.9321 45.3633 35.8271 45.6489 35.8271 46.0054V46.1958H33.6812V45.9761C33.6812 45.0483 33.979 44.2915 34.5747 43.7056C35.1753 43.1147 35.9688 42.8193 36.9551 42.8193C37.9365 42.8193 38.7373 43.1123 39.3574 43.6982C39.9824 44.2842 40.2949 45.0361 40.2949 45.9541C40.2949 46.5938 40.0996 47.2676 39.709 47.9756C39.3184 48.6787 38.5615 49.6821 37.4385 50.9858ZM49.1353 49.2134V51.0884H48.271V53H46.2568V51.0884H41.4668V50.7002L44.7554 43.0244H46.8721L44.2207 49.2134H46.3081L46.6523 46.8403H48.271V49.2134H49.1353Z" fill="#5B6170"/>
<defs>
<radialGradient id="paint0_radial_2_7059" cx="0" cy="0" r="1" gradientUnits="userSpaceOnUse" gradientTransform="translate(16 16.0001) rotate(90) scale(8.33333)">
<stop stop-color="#FFC657"/>
<stop offset="1" stop-color="#FFBA36"/>
</radialGradient>
<radialGradient id="paint1_radial_2_7059" cx="0" cy="0" r="1" gradientUnits="userSpaceOnUse" gradientTransform="translate(16 15.9999) rotate(90) scale(6.66667)">
<stop stop-color="#FFCC9D"/>
<stop offset="1" stop-color="#F29100"/>
</radialGradient>
<linearGradient id="paint2_linear_2_7059" x1="23.062" y1="45.8201" x2="23.062" y2="55.4992" gradientUnits="userSpaceOnUse">
<stop stop-color="#FFC888"/>
<stop offset="1" stop-color="#FFEBCD"/>
</linearGradient>
<linearGradient id="paint3_linear_2_7059" x1="23.0102" y1="48.1865" x2="23.0102" y2="55.3966" gradientUnits="userSpaceOnUse">
<stop stop-color="#FFBD8D"/>
<stop offset="1" stop-color="#FF6B00"/>
</linearGradient>
</defs>
</svg>
