<svg width="44" height="44" viewBox="0 0 44 44" fill="none" xmlns="http://www.w3.org/2000/svg">
<rect width="44" height="44" rx="22" fill="white" fill-opacity="0.64"/>
<rect x="4.5" y="4.5" width="35" height="35" rx="17.5" fill="white"/>
<rect x="4.5" y="4.5" width="35" height="35" rx="17.5" stroke="#EAF0F2"/>
<mask id="mask0_2_7080" style="mask-type:alpha" maskUnits="userSpaceOnUse" x="10" y="10" width="24" height="24">
<rect x="10" y="10" width="24" height="24" fill="#D9D9D9"/>
</mask>
<g mask="url(#mask0_2_7080)">
<path d="M24.6923 28C24.0499 28 23.5048 27.776 23.0568 27.328C22.6088 26.8798 22.3848 26.3346 22.3848 25.6923C22.3848 25.0499 22.6088 24.5048 23.0568 24.0568C23.5048 23.6088 24.0499 23.3848 24.6923 23.3848C25.3346 23.3848 25.8798 23.6088 26.328 24.0568C26.776 24.5048 27 25.0499 27 25.6923C27 26.3346 26.776 26.8798 26.328 27.328C25.8798 27.776 25.3346 28 24.6923 28ZM15.3077 31.5C14.8026 31.5 14.375 31.325 14.025 30.975C13.675 30.625 13.5 30.1974 13.5 29.6923V16.3078C13.5 15.8026 13.675 15.375 14.025 15.025C14.375 14.675 14.8026 14.5 15.3077 14.5H16.6923V13.1538C16.6923 12.9346 16.7657 12.7516 16.9125 12.6048C17.0593 12.4581 17.2423 12.3848 17.4615 12.3848C17.6808 12.3848 17.8638 12.4581 18.0105 12.6048C18.1573 12.7516 18.2308 12.9346 18.2308 13.1538V14.5H25.8077V13.1348C25.8077 12.9219 25.8795 12.7437 26.023 12.6C26.1667 12.4565 26.3449 12.3848 26.5577 12.3848C26.7706 12.3848 26.9487 12.4565 27.0922 12.6C27.2359 12.7437 27.3077 12.9219 27.3077 13.1348V14.5H28.6923C29.1974 14.5 29.625 14.675 29.975 15.025C30.325 15.375 30.5 15.8026 30.5 16.3078V29.6923C30.5 30.1974 30.325 30.625 29.975 30.975C29.625 31.325 29.1974 31.5 28.6923 31.5H15.3077ZM15.3077 30H28.6923C28.7692 30 28.8398 29.9679 28.9038 29.9038C28.9679 29.8398 29 29.7693 29 29.6923V20.3078H15V29.6923C15 29.7693 15.0321 29.8398 15.0963 29.9038C15.1603 29.9679 15.2307 30 15.3077 30ZM15 18.8078H29V16.3078C29 16.2308 28.9679 16.1603 28.9038 16.0963C28.8398 16.0321 28.7692 16 28.6923 16H15.3077C15.2307 16 15.1603 16.0321 15.0963 16.0963C15.0321 16.1603 15 16.2308 15 16.3078V18.8078Z" fill="#3D404B"/>
</g>
</svg>
