<svg width="44" height="44" viewBox="0 0 44 44" fill="none" xmlns="http://www.w3.org/2000/svg">
<rect width="44" height="44" rx="22" fill="white" fill-opacity="0.64"/>
<rect x="4.5" y="4.5" width="35" height="35" rx="17.5" fill="white"/>
<rect x="4.5" y="4.5" width="35" height="35" rx="17.5" stroke="#EAF0F2"/>
<mask id="mask0_2_7106" style="mask-type:alpha" maskUnits="userSpaceOnUse" x="10" y="10" width="24" height="24">
<rect x="10" y="10" width="24" height="24" fill="#D9D9D9"/>
</mask>
<g mask="url(#mask0_2_7106)">
<path d="M19 19.3077V29.6922C19 29.782 19.0288 29.8557 19.0865 29.9134C19.1442 29.9711 19.2179 29.9999 19.3077 29.9999H26V26.9037C26 26.646 26.0862 26.431 26.2587 26.2587C26.4311 26.0862 26.6461 25.9999 26.9037 25.9999H30V19.3077C30 19.2178 29.9712 19.1441 29.9135 19.0864C29.8558 19.0287 29.7821 18.9999 29.6922 18.9999H19.3077C19.2179 18.9999 19.1442 19.0287 19.0865 19.0864C19.0288 19.1441 19 19.2178 19 19.3077ZM17.5 29.6922V19.2922C17.5 18.7935 17.6792 18.3702 18.0375 18.0222C18.3958 17.674 18.8243 17.4999 19.323 17.4999H29.6922C30.1909 17.4999 30.6169 17.6765 30.9702 18.0297C31.3234 18.383 31.5 18.809 31.5 19.3077V26.0402C31.5 26.2813 31.4532 26.5131 31.3595 26.7354C31.266 26.9579 31.1372 27.1512 30.973 27.3152L27.3152 30.9729C27.1512 31.1371 26.958 31.2659 26.7355 31.3594C26.5132 31.4531 26.2814 31.4999 26.0402 31.4999H19.3077C18.8091 31.4999 18.3831 31.3233 18.0297 30.9702C17.6766 30.6168 17.5 30.1908 17.5 29.6922ZM12.525 16.4229C12.4315 15.9242 12.5287 15.4749 12.8165 15.0749C13.1042 14.6749 13.4974 14.4282 13.9962 14.3347L24.2307 12.5249C24.7192 12.4314 25.1609 12.5311 25.5557 12.8239C25.9506 13.1169 26.2051 13.5077 26.3192 13.9962L26.475 14.7999C26.5327 15.0499 26.4938 15.2492 26.3585 15.3979C26.2233 15.5467 26.0628 15.6346 25.877 15.6614C25.691 15.6884 25.5143 15.6554 25.347 15.5624C25.1798 15.4694 25.0642 15.2979 25 15.0479L24.825 14.2114C24.8122 14.1409 24.7737 14.0848 24.7095 14.0432C24.6455 14.0015 24.575 13.9871 24.498 13.9999L14.2597 15.8192C14.1699 15.832 14.1026 15.8737 14.0577 15.9442C14.0129 16.0147 13.9968 16.0948 14.0095 16.1847L15.673 25.6692C15.7102 25.8757 15.673 26.0642 15.5615 26.2347C15.45 26.4052 15.2911 26.5122 15.0847 26.5557C14.8719 26.5993 14.6812 26.5596 14.5125 26.4364C14.344 26.3134 14.2412 26.1455 14.204 25.9327L12.525 16.4229Z" fill="#3D404B"/>
</g>
</svg>
