<svg width="16" height="16" viewBox="0 0 16 16" fill="none" xmlns="http://www.w3.org/2000/svg">
<path d="M6.94854 11.4496L12.236 6.16213L11.186 5.11213L6.94854 9.34963L4.81104 7.21213L3.76104 8.26213L6.94854 11.4496ZM7.99854 15.4996C6.96104 15.4996 5.98604 15.3028 5.07354 14.909C4.16104 14.5153 3.36729 13.9809 2.69229 13.3059C2.01729 12.6309 1.48291 11.8371 1.08916 10.9246C0.69541 10.0121 0.498535 9.03713 0.498535 7.99963C0.498535 6.96213 0.69541 5.98713 1.08916 5.07463C1.48291 4.16213 2.01729 3.36838 2.69229 2.69338C3.36729 2.01838 4.16104 1.48401 5.07354 1.09026C5.98604 0.696509 6.96104 0.499634 7.99854 0.499634C9.03604 0.499634 10.011 0.696509 10.9235 1.09026C11.836 1.48401 12.6298 2.01838 13.3048 2.69338C13.9798 3.36838 14.5142 4.16213 14.9079 5.07463C15.3017 5.98713 15.4985 6.96213 15.4985 7.99963C15.4985 9.03713 15.3017 10.0121 14.9079 10.9246C14.5142 11.8371 13.9798 12.6309 13.3048 13.3059C12.6298 13.9809 11.836 14.5153 10.9235 14.909C10.011 15.3028 9.03604 15.4996 7.99854 15.4996Z" fill="#3CC28A"/>
</svg>
